<?xml version="1.0" encoding="utf-8"?>
<!-- Generator: Adobe Illustrator 21.0.0, SVG Export Plug-In . SVG Version: 6.00 Build 0)  -->
<svg version="1.1" id="Layer_1" xmlns="http://www.w3.org/2000/svg" xmlns:xlink="http://www.w3.org/1999/xlink" x="0px" y="0px"
	 viewBox="0 0 465 1417.3" style="enable-background:new 0 0 465 1417.3;" xml:space="preserve">
<style type="text/css">
	.st0{fill:#0066CC;}
</style>
<title>Layer 1</title>
<g>
	<path d="M441.4,14.8H23.8c-3.5,0-6.3,2.8-6.3,6.3v1376.3c0,3.5,2.8,6.3,6.3,6.3h417.6c3.5,0,6.3-2.8,6.3-6.3V21.2
		C447.8,17.7,444.9,14.8,441.4,14.8z M435.1,1391.2h-405V27.5h405V1391.2z"/>
	<path d="M41.7,1382.7h381.8c1.7,0,3.2-1.4,3.2-3.2V39.1c0-1.7-1.4-3.2-3.2-3.2H41.7c-1.7,0-3.2,1.4-3.2,3.2v1340.5
		C38.6,1381.3,40,1382.7,41.7,1382.7z M44.9,42.3h375.4v1334.1H44.9V42.3z"/>
	<path d="M284.1,948.4h-103c-3.2,0-5.8,2.6-5.8,5.8v32.7c0,3.2,2.6,5.8,5.8,5.8h103c3.2,0,5.8-2.6,5.8-5.8v-32.7
		C289.9,951,287.3,948.4,284.1,948.4z M286.8,986.9c0,1.5-1.2,2.6-2.6,2.6h-103c-1.5,0-2.6-1.2-2.6-2.6v-32.7c0-1.5,1.2-2.6,2.6-2.6
		h103c1.5,0,2.6,1.2,2.6,2.6V986.9z"/>
	<path d="M218.4,137.5c0.2,0.1,0.3,0.1,0.5,0.1c0.6,0,1.3-0.4,1.5-1.1l4.9-14c0.5-1.1,0.9-0.9,1.4,0.1c0.8,2.1,1.3,3.2,1.3,3.2
		c0.3,0.8,1.2,1.2,2.1,0.9c0.8-0.3,1.2-1.2,0.9-2.1c0,0-0.5-1.2-1.3-3.3c-0.4-0.9-0.8-1.7-1.4-2.3c-0.6-0.6-1.4-1.1-2.3-1.1
		c-0.9,0-1.7,0.5-2.3,1.1c-0.6,0.6-1,1.4-1.3,2.3l-4.9,14C217.2,136.3,217.6,137.2,218.4,137.5z"/>
	<path d="M229.8,131.3c0,0,4.1,11,5,13.1c0.4,0.9,0.8,1.7,1.4,2.3c0.6,0.6,1.4,1.1,2.3,1.1c0.9,0,1.8-0.5,2.3-1.1
		c0.6-0.6,1-1.4,1.3-2.3l5.4-14.8c0.3-0.8-0.1-1.7-1-2c-0.2-0.1-0.4-0.1-0.5-0.1c-0.7,0-1.3,0.4-1.5,1.1l-5.4,14.8
		c-0.5,1.1-0.9,0.9-1.4-0.1c-0.9-2.1-5-13.1-5-13.1c-0.3-0.8-1.3-1.2-2.1-0.9C229.8,129.6,229.4,130.5,229.8,131.3z"/>
	<path d="M232.5,160.1c15,0,27.2-12.2,27.2-27.2c0-15-12.2-27.2-27.2-27.2c-15,0-27.2,12.2-27.2,27.2
		C205.3,147.9,217.5,160.1,232.5,160.1z M232.5,109.9c12.7,0,23,10.3,23,23s-10.3,23-23,23c-12.7,0-23-10.3-23-23
		S219.8,109.9,232.5,109.9z"/>
	<path d="M199.8,953.3h-15.7c-2.1,0-3.8,1.7-3.8,3.8V984c0,2.1,1.7,3.8,3.8,3.8h15.7c2.1,0,3.8-1.7,3.8-3.8v-26.9
		C203.7,955,202,953.3,199.8,953.3z M200.2,984c0,0.2-0.2,0.4-0.4,0.4h-15.7c-0.2,0-0.4-0.2-0.4-0.4v-26.9c0-0.2,0.2-0.4,0.4-0.4
		h15.7c0.2,0,0.4,0.2,0.4,0.4V984z"/>
	<path d="M159.3,612.7c-5.6,0-10.2,4.6-10.2,10.2c0,5.6,4.6,10.2,10.2,10.2c5.6,0,10.2-4.6,10.2-10.2
		C169.5,617.2,164.9,612.7,159.3,612.7z"/>
	<path d="M138,602.5c-4.7,0-7.7,4.8-5.5,8.9l21.4,38.8c2.3,4.3,8.6,4.4,11,0.2l21.3-38.8c2.3-4.1-0.7-9.1-5.4-9.1H138z M159.3,637.3
		c-7.9,0-14.4-6.5-14.4-14.4c0-7.9,6.5-14.4,14.4-14.4c7.9,0,14.4,6.5,14.4,14.4C173.7,630.8,167.2,637.3,159.3,637.3z"/>
	<path d="M335.3,653.4c4.7,0,7.7-4.8,5.5-8.9l-21.4-38.8c-2.3-4.3-8.6-4.4-11-0.2l-21.3,38.8c-2.3,4.1,0.7,9.1,5.4,9.1H335.3z
		 M311.4,618.5c0-1.5,1.2-2.6,2.6-2.6s2.6,1.2,2.6,2.6v25.3c0,1.5-1.2,2.6-2.6,2.6s-2.6-1.2-2.6-2.6V618.5z"/>
	<path d="M144.6,774.6c-4.5,0-8.2,3.7-8.2,8.2v27.5c0,4.5,3.7,8.2,8.2,8.2h27.5c4.5,0,8.2-3.7,8.2-8.2v-27.5c0-4.5-3.7-8.2-8.2-8.2
		H144.6z M156.4,784.8v-5.3c0-1.1,0.9-2,2-2c1.1,0,2,0.9,2,2v4.9v9.6c0,1.1-0.9,2-2,2c-1.1,0-2-0.9-2-2V784.8z M158.4,814.1
		c-9.1,0-16.5-7.4-16.5-16.5c0-6.2,3.4-11.8,9-14.7c1-0.5,2.2-0.1,2.7,0.9c0.1,0.3,0.2,0.6,0.2,0.9c0,0.7-0.4,1.5-1.1,1.8
		c-4.2,2.1-6.8,6.4-6.8,11c0,6.8,5.6,12.4,12.4,12.4c6.8,0,12.4-5.6,12.4-12.4c0-5-3-9.5-7.6-11.4c-0.8-0.3-1.2-1.1-1.2-1.9
		c0-0.3,0.1-0.5,0.2-0.8c0.4-1,1.6-1.5,2.7-1.1c6.1,2.6,10,8.5,10,15.2C174.9,806.8,167.5,814.1,158.4,814.1z"/>
	<path d="M320.6,818.5c4.5,0,8.2-3.7,8.2-8.2v-27.5c0-4.5-3.7-8.2-8.2-8.2h-27.5c-4.5,0-8.2,3.7-8.2,8.2v27.5c0,4.5,3.7,8.2,8.2,8.2
		H320.6z M306.8,784.6c6.6,0,12,5.4,12,12s-5.4,12-12,12s-12-5.4-12-12S300.2,784.6,306.8,784.6z"/>
	<path d="M238,697.4v-6.6h3.4v-2.6H238v-15.1h-3.6l-10.9,15.6v2.2h11.3v6.6H238z M226.9,688.2L226.9,688.2l6-8.4
		c0.7-1.1,1.3-2.2,2-3.6h0.1c-0.1,1.3-0.1,2.5-0.1,3.8v8.1H226.9z"/>
	<path d="M159.3,502.8c-5.6,0-10.2,4.6-10.2,10.2c0,5.6,4.6,10.2,10.2,10.2c5.6,0,10.2-4.6,10.2-10.2
		C169.5,507.4,164.9,502.8,159.3,502.8z"/>
	<path d="M138,492.6c-4.7,0-7.7,4.8-5.5,8.9l21.4,38.8c2.3,4.3,8.6,4.4,11,0.2l21.3-38.8c2.3-4.1-0.7-9.1-5.4-9.1H138z M159.3,527.4
		c-7.9,0-14.4-6.5-14.4-14.4c0-7.9,6.5-14.4,14.4-14.4c7.9,0,14.4,6.5,14.4,14.4C173.7,521,167.2,527.4,159.3,527.4z"/>
	<path d="M335.3,543.6c4.7,0,7.7-4.8,5.5-8.9l-21.4-38.8c-2.3-4.3-8.6-4.4-11-0.2l-21.3,38.8c-2.3,4.1,0.7,9.1,5.4,9.1H335.3z
		 M311.4,508.7c0-1.5,1.2-2.6,2.6-2.6s2.6,1.2,2.6,2.6V534c0,1.5-1.2,2.6-2.6,2.6s-2.6-1.2-2.6-2.6V508.7z"/>
	<path d="M230.9,588c5.8,0,8.9-3.4,8.9-7.3c0-3.4-2.4-5.7-5.4-6.3v-0.1c3-1.1,4.5-3.2,4.5-5.7c0-3-2.2-5.8-7-5.8
		c-2.6,0-5.1,0.9-6.4,1.9l0.9,2.4c1-0.7,2.9-1.6,4.9-1.6c3,0,4.3,1.7,4.3,3.7c0,2.9-3,4.1-5.4,4.1h-1.8v2.5h1.8
		c3.2,0,6.3,1.5,6.3,4.9c0,2-1.3,4.7-5.5,4.7c-2.3,0-4.5-0.9-5.4-1.5l-0.9,2.5C225.8,587.1,228.2,588,230.9,588z"/>
	<path d="M159.3,393c-5.6,0-10.2,4.6-10.2,10.2c0,5.6,4.6,10.2,10.2,10.2c5.6,0,10.2-4.6,10.2-10.2C169.5,397.6,164.9,393,159.3,393
		z"/>
	<path d="M138,382.8c-4.7,0-7.7,4.8-5.5,8.9l21.4,38.8c2.3,4.3,8.6,4.4,11,0.2l21.3-38.8c2.3-4.1-0.7-9.1-5.4-9.1H138z M159.3,417.6
		c-7.9,0-14.4-6.5-14.4-14.4c0-7.9,6.5-14.4,14.4-14.4c7.9,0,14.4,6.5,14.4,14.4C173.7,411.1,167.2,417.6,159.3,417.6z"/>
	<path d="M335.3,433.8c4.7,0,7.7-4.8,5.5-8.9l-21.4-38.8c-2.3-4.3-8.6-4.4-11-0.2l-21.3,38.8c-2.3,4.1,0.7,9.1,5.4,9.1H335.3z
		 M311.4,398.9c0-1.5,1.2-2.6,2.6-2.6s2.6,1.2,2.6,2.6v25.3c0,1.5-1.2,2.6-2.6,2.6s-2.6-1.2-2.6-2.6V398.9z"/>
	<path d="M227.3,473.2l-2.6,2.5v2h15.6V475h-10.9V475l1.9-1.8c5.1-4.9,8.4-8.6,8.4-13.1c0-3.5-2.2-7.1-7.5-7.1c-2.8,0-5.2,1-6.9,2.5
		l1,2.3c1.1-0.9,3-2.1,5.2-2.1c3.6,0,4.8,2.3,4.8,4.8C236.3,464.2,233.5,467.3,227.3,473.2z"/>
	<path d="M203.1,857.8v-12.4c0-6.2-5.1-11.3-11.3-11.3h-66.9c-6.2,0-11.3,5.1-11.3,11.3v12.4c0,6.2,5.1,11.3,11.3,11.3h66.9
		C198.1,869.1,203.1,864,203.1,857.8z M116.8,857.8v-12.4c0-4.5,3.6-8.1,8.1-8.1h66.9c4.5,0,8.1,3.6,8.1,8.1v12.4
		c0,4.5-3.6,8.1-8.1,8.1h-66.9C120.5,865.9,116.8,862.3,116.8,857.8z"/>
	<path d="M340.3,834.1h-66.9c-6.2,0-11.3,5.1-11.3,11.3v12.4c0,6.2,5.1,11.3,11.3,11.3h66.9c6.2,0,11.3-5.1,11.3-11.3v-12.4
		C351.6,839.2,346.5,834.1,340.3,834.1z M348.4,857.8c0,4.5-3.6,8.1-8.1,8.1h-66.9c-4.5,0-8.1-3.6-8.1-8.1v-12.4
		c0-4.5,3.6-8.1,8.1-8.1h66.9c4.5,0,8.1,3.6,8.1,8.1V857.8z"/>
	<path d="M124.9,704.9h66.9c6.2,0,11.3-5.1,11.3-11.3v-12.4c0-6.2-5.1-11.3-11.3-11.3h-66.9c-6.2,0-11.3,5.1-11.3,11.3v12.4
		C113.7,699.9,118.7,704.9,124.9,704.9z M116.8,681.2c0-4.5,3.6-8.1,8.1-8.1h66.9c4.5,0,8.1,3.6,8.1,8.1v12.4c0,4.5-3.6,8.1-8.1,8.1
		h-66.9c-4.5,0-8.1-3.6-8.1-8.1V681.2z"/>
	<path d="M340.3,670h-66.9c-6.2,0-11.3,5.1-11.3,11.3v12.4c0,6.2,5.1,11.3,11.3,11.3h66.9c6.2,0,11.3-5.1,11.3-11.3v-12.4
		C351.6,675,346.5,670,340.3,670z M348.4,693.7c0,4.5-3.6,8.1-8.1,8.1h-66.9c-4.5,0-8.1-3.6-8.1-8.1v-12.4c0-4.5,3.6-8.1,8.1-8.1
		h66.9c4.5,0,8.1,3.6,8.1,8.1V693.7z"/>
	<path d="M124.9,595.1h66.9c6.2,0,11.3-5.1,11.3-11.3v-12.4c0-6.2-5.1-11.3-11.3-11.3h-66.9c-6.2,0-11.3,5.1-11.3,11.3v12.4
		C113.7,590,118.7,595.1,124.9,595.1z M116.8,571.4c0-4.5,3.6-8.1,8.1-8.1h66.9c4.5,0,8.1,3.6,8.1,8.1v12.4c0,4.5-3.6,8.1-8.1,8.1
		h-66.9c-4.5,0-8.1-3.6-8.1-8.1V571.4z"/>
	<path d="M340.3,560.1h-66.9c-6.2,0-11.3,5.1-11.3,11.3v12.4c0,6.2,5.1,11.3,11.3,11.3h66.9c6.2,0,11.3-5.1,11.3-11.3v-12.4
		C351.6,565.2,346.5,560.1,340.3,560.1z M348.4,583.8c0,4.5-3.6,8.1-8.1,8.1h-66.9c-4.5,0-8.1-3.6-8.1-8.1v-12.4
		c0-4.5,3.6-8.1,8.1-8.1h66.9c4.5,0,8.1,3.6,8.1,8.1V583.8z"/>
	<path d="M124.9,485.3h66.9c6.2,0,11.3-5.1,11.3-11.3v-12.4c0-6.2-5.1-11.3-11.3-11.3h-66.9c-6.2,0-11.3,5.1-11.3,11.3V474
		C113.7,480.2,118.7,485.3,124.9,485.3z M116.8,461.6c0-4.5,3.6-8.1,8.1-8.1h66.9c4.5,0,8.1,3.6,8.1,8.1V474c0,4.5-3.6,8.1-8.1,8.1
		h-66.9c-4.5,0-8.1-3.6-8.1-8.1V461.6z"/>
	<path d="M340.3,450.3h-66.9c-6.2,0-11.3,5.1-11.3,11.3V474c0,6.2,5.1,11.3,11.3,11.3h66.9c6.2,0,11.3-5.1,11.3-11.3v-12.4
		C351.6,455.4,346.5,450.3,340.3,450.3z M348.4,474c0,4.5-3.6,8.1-8.1,8.1h-66.9c-4.5,0-8.1-3.6-8.1-8.1v-12.4
		c0-4.5,3.6-8.1,8.1-8.1h66.9c4.5,0,8.1,3.6,8.1,8.1V474z"/>
	<path d="M124.9,375.4h66.9c6.2,0,11.3-5.1,11.3-11.3v-12.4c0-6.2-5.1-11.3-11.3-11.3h-66.9c-6.2,0-11.3,5.1-11.3,11.3v12.4
		C113.7,370.4,118.7,375.4,124.9,375.4z M116.8,351.7c0-4.5,3.6-8.1,8.1-8.1h66.9c4.5,0,8.1,3.6,8.1,8.1v12.4c0,4.5-3.6,8.1-8.1,8.1
		h-66.9c-4.5,0-8.1-3.6-8.1-8.1V351.7z"/>
	<path d="M340.3,340.5h-66.9c-6.2,0-11.3,5.1-11.3,11.3v12.4c0,6.2,5.1,11.3,11.3,11.3h66.9c6.2,0,11.3-5.1,11.3-11.3v-12.4
		C351.6,345.5,346.5,340.5,340.3,340.5z M348.4,364.2c0,4.5-3.6,8.1-8.1,8.1h-66.9c-4.5,0-8.1-3.6-8.1-8.1v-12.4
		c0-4.5,3.6-8.1,8.1-8.1h66.9c4.5,0,8.1,3.6,8.1,8.1V364.2z"/>
	<path d="M159.3,303.6c5.6,0,10.2-4.6,10.2-10.2c0-5.6-4.6-10.2-10.2-10.2c-5.6,0-10.2,4.6-10.2,10.2
		C149.1,299,153.7,303.6,159.3,303.6z"/>
	<path d="M153.8,320.7c2.3,4.3,8.6,4.4,11,0.2l21.3-38.8c2.3-4.1-0.7-9.1-5.4-9.1H138c-4.7,0-7.7,4.8-5.5,8.9L153.8,320.7z
		 M159.3,279c7.9,0,14.4,6.5,14.4,14.4c0,7.9-6.5,14.4-14.4,14.4c-7.9,0-14.4-6.5-14.4-14.4C144.9,285.4,151.4,279,159.3,279z"/>
	<path d="M292.7,323.9h42.6c4.7,0,7.7-4.8,5.5-8.9l-21.4-38.8c-2.3-4.3-8.6-4.4-11-0.2l-21.3,38.8
		C284.9,319,287.9,323.9,292.7,323.9z M311.4,289c0-1.5,1.2-2.6,2.6-2.6s2.6,1.2,2.6,2.6v25.3c0,1.5-1.2,2.6-2.6,2.6
		s-2.6-1.2-2.6-2.6V289z"/>
	<polygon points="235,367.9 235,343.6 232.2,343.6 226.9,346.4 227.5,348.9 231.8,346.6 231.8,346.6 231.8,367.9 	"/>
	<path d="M193.1,1001.4c-0.4-0.5-0.9-0.8-1.6-1.1c-0.6-0.3-1.4-0.4-2.3-0.4c-0.9,0-1.6,0.1-2.2,0.2c-0.6,0.1-1.1,0.3-1.4,0.4
		l-0.3,0.1l0.3,2.2l0.5-0.2c0.2-0.1,0.5-0.2,1-0.3c0.4-0.1,1.1-0.2,2-0.2c0.6,0,1.1,0.1,1.4,0.3c0.3,0.2,0.6,0.4,0.8,0.7
		c0.2,0.3,0.3,0.6,0.4,1c0.1,0.4,0.1,0.8,0.1,1.3v0.3c-0.2,0-0.3-0.1-0.5-0.1c-0.3,0-0.5-0.1-0.8-0.1c-1.2-0.1-2.2,0-3.1,0.2
		c-0.7,0.2-1.3,0.4-1.9,0.8c-0.5,0.4-1,0.8-1.3,1.4c-0.3,0.6-0.4,1.2-0.4,2c0,0.8,0.1,1.5,0.4,2c0.3,0.6,0.6,1,1.1,1.4
		c0.5,0.4,1,0.6,1.7,0.8c0.6,0.2,1.3,0.2,2,0.2c0.5,0,1.1,0,1.6-0.1c0.5,0,1-0.1,1.4-0.2c0.4-0.1,0.8-0.1,1.1-0.2
		c0.3-0.1,0.6-0.1,0.8-0.2l0.3-0.1v-8.5c0-0.7-0.1-1.4-0.3-2C193.8,1002.5,193.5,1001.9,193.1,1001.4z M191.9,1011.9
		c-0.3,0-0.5,0.1-0.9,0.1c-0.5,0-1,0.1-1.6,0.1c-0.5,0-0.9,0-1.3-0.1c-0.4-0.1-0.7-0.2-0.9-0.4c-0.2-0.2-0.4-0.4-0.5-0.7
		c-0.1-0.3-0.2-0.6-0.2-1.1c0-0.5,0.1-0.8,0.3-1.1c0.2-0.3,0.5-0.5,0.8-0.7c0.3-0.2,0.7-0.3,1.1-0.3c0.4-0.1,0.8-0.1,1.2-0.1
		c0.7,0,1.2,0,1.6,0.1c0.3,0.1,0.4,0.1,0.6,0.2V1011.9z"/>
	<rect x="200.2" y="1005.2" width="6.5" height="2.4"/>
	<path d="M223.1,1002c-0.5-0.6-1.2-1.2-2-1.5c-0.8-0.4-1.7-0.5-2.7-0.5c-0.9,0-1.7,0.1-2.4,0.4c-0.3,0.1-0.6,0.2-0.8,0.4v-7.1
		l-2.4,0.4v19.5l0.3,0.1c0.5,0.2,1.1,0.3,1.9,0.5c0.8,0.2,1.8,0.2,3,0.2c1,0,1.9-0.2,2.8-0.5c0.8-0.3,1.6-0.8,2.2-1.4
		c0.6-0.6,1.1-1.4,1.4-2.3c0.3-0.9,0.5-1.9,0.5-3c0-1-0.1-2-0.4-2.9C224,1003.4,223.6,1002.6,223.1,1002z M221,1010.8
		c-0.8,0.8-1.8,1.2-3.1,1.2c-0.8,0-1.4,0-1.9-0.1c-0.3,0-0.6-0.1-0.8-0.1v-8.6c0.1-0.1,0.2-0.2,0.4-0.2c0.2-0.1,0.5-0.2,0.7-0.3
		c0.3-0.1,0.6-0.2,0.9-0.3c0.3-0.1,0.7-0.1,1-0.1c0.7,0,1.4,0.1,1.8,0.4c0.5,0.3,0.9,0.6,1.2,1c0.3,0.4,0.5,1,0.7,1.6
		c0.1,0.6,0.2,1.3,0.2,2C222.2,1008.7,221.8,1010,221,1010.8z"/>
	<rect x="230" y="1005.2" width="6.5" height="2.4"/>
	<path d="M251.3,1011.4c-0.2,0.1-0.5,0.2-1,0.4c-0.4,0.1-1,0.2-1.7,0.2c-0.8,0-1.5-0.1-2-0.4c-0.5-0.2-1-0.6-1.3-1
		c-0.3-0.4-0.6-0.9-0.7-1.5c-0.2-0.6-0.2-1.3-0.2-2c0-1.6,0.3-2.9,1-3.7c0.7-0.8,1.6-1.3,3-1.3c0.7,0,1.2,0,1.6,0.1
		c0.4,0.1,0.7,0.2,1.1,0.4l0.4,0.2l0.7-2.2l-0.3-0.2c-0.4-0.2-0.9-0.4-1.5-0.5c-0.6-0.1-1.3-0.2-2.1-0.2c-1,0-1.9,0.2-2.7,0.5
		c-0.8,0.4-1.5,0.9-2,1.5c-0.6,0.6-1,1.4-1.3,2.3c-0.3,0.9-0.4,1.9-0.4,2.9c0,1,0.1,2,0.4,2.9c0.3,0.9,0.7,1.6,1.2,2.3
		c0.6,0.6,1.3,1.1,2.1,1.5c0.8,0.3,1.8,0.5,2.8,0.5c0.7,0,1.5-0.1,2.1-0.3c0.7-0.2,1.2-0.3,1.5-0.5l0.3-0.1l-0.5-2.2L251.3,1011.4z"
		/>
	<rect x="256.7" y="1005.2" width="6.5" height="2.4"/>
	<path d="M278,1000.7c-0.2-0.1-0.5-0.2-0.8-0.4c-0.7-0.3-1.5-0.4-2.4-0.4c-1,0-1.9,0.2-2.7,0.5c-0.8,0.4-1.5,0.9-2,1.5
		c-0.5,0.6-0.9,1.4-1.2,2.3c-0.3,0.9-0.4,1.8-0.4,2.9c0,1.1,0.2,2.1,0.5,3c0.3,0.9,0.8,1.7,1.4,2.3c0.6,0.6,1.3,1.1,2.2,1.4
		c0.8,0.3,1.8,0.5,2.8,0.5c1.2,0,2.2-0.1,3-0.2c0.8-0.2,1.4-0.3,1.9-0.5l0.3-0.1v-19.9L278,994V1000.7z M278,1011.8
		c-0.2,0.1-0.5,0.1-0.8,0.1c-0.5,0.1-1.1,0.1-1.9,0.1c-1.3,0-2.3-0.4-3.1-1.2c-0.8-0.8-1.2-2.1-1.2-3.7c0-0.7,0.1-1.3,0.2-2
		c0.1-0.6,0.4-1.1,0.7-1.6c0.3-0.4,0.7-0.8,1.2-1c0.5-0.3,1.1-0.4,1.8-0.4c0.4,0,0.7,0,1,0.1c0.3,0.1,0.6,0.2,0.9,0.3
		c0.3,0.1,0.5,0.2,0.7,0.3c0.1,0.1,0.3,0.2,0.4,0.2V1011.8z"/>
</g>
<path class="st0" d="M273,369c-2.9,0-5.2-2.3-5.2-5.2v-12.4c0-2.9,2.3-5.2,5.2-5.2h66.9c2.9,0,5.2,2.3,5.2,5.2v12.4 
	c0,2.9-2.3,5.2-5.2,5.2H273z"/>
</svg>
