<?xml version="1.0" encoding="utf-8"?>
<!-- Generator: Adobe Illustrator 21.0.0, SVG Export Plug-In . SVG Version: 6.00 Build 0)  -->
<svg version="1.1" id="Layer_1" xmlns="http://www.w3.org/2000/svg" xmlns:xlink="http://www.w3.org/1999/xlink" x="0px" y="0px"
	 viewBox="0 0 746.7 1417.3" style="enable-background:new 0 0 746.7 1417.3;" xml:space="preserve">
<style type="text/css">
	.pair {
		animation: pair 2s infinite;
	}
	
	@keyframes pair {
		0%, 20%, 80%, 100% {
			fill: rgba(255,255,255,0);
		}
		50% {
			fill: #0074CC;
		}
	}
</style>
<g>
	<circle class="pair" cx="131.3" cy="1204.3" r="31.1"/>
</g>
<g>
	<path d="M723.7,14.8H23.9c-3.5,0-6.3,2.8-6.3,6.3v1376.3c0,3.5,2.8,6.3,6.3,6.3h699.8c3.5,0,6.3-2.8,6.3-6.3V21.2
		C730,17.7,727.2,14.8,723.7,14.8z M717.4,1391.2H30.2V27.5h687.1V1391.2z"/>
	<path d="M41.8,1382.7h663.9c1.7,0,3.2-1.4,3.2-3.2V39.1c0-1.7-1.4-3.2-3.2-3.2H41.8c-1.7,0-3.2,1.4-3.2,3.2v1340.5
		C38.7,1381.3,40.1,1382.7,41.8,1382.7z M45,42.3h657.6v1334.1H45V42.3z"/>
	<path d="M148.7,1197.6c-0.2-0.1-0.4-0.1-0.7-0.1c-0.8,0-1.6,0.5-1.9,1.3l-6.6,18.3c-0.6,1.3-1.1,1.2-1.7-0.1
		c-1.1-2.6-6.1-16.2-6.1-16.2c-0.4-1-1.6-1.5-2.6-1.1c-1,0.4-1.5,1.5-1.1,2.5c0,0,5.1,13.6,6.1,16.2c0.5,1.1,1,2.1,1.7,2.8
		c0.7,0.7,1.7,1.3,2.9,1.3c1.2,0,2.2-0.6,2.9-1.3c0.7-0.8,1.2-1.7,1.6-2.8l6.6-18.3C150.3,1199.1,149.7,1198,148.7,1197.6z"/>
	<path d="M129.5,1194.1c0,0-0.6-1.5-1.6-4c-0.5-1.1-1-2.1-1.7-2.8c-0.7-0.7-1.7-1.3-2.9-1.3c-1.2,0-2.2,0.6-2.8,1.3
		c-0.7,0.8-1.2,1.7-1.6,2.8l-6.1,17.3c-0.4,1,0.2,2.1,1.2,2.5c0.2,0.1,0.4,0.1,0.6,0.1c0.8,0,1.6-0.5,1.8-1.3l6.1-17.3
		c0.6-1.3,1.1-1.2,1.7,0.1c1,2.6,1.6,4,1.6,4c0.4,1,1.5,1.5,2.5,1.1C129.4,1196.2,129.9,1195.1,129.5,1194.1z"/>
	<path d="M131.3,1170c-18.9,0-34.3,15.4-34.3,34.2c0,18.9,15.4,34.3,34.3,34.3c18.9,0,34.2-15.4,34.2-34.3
		C165.6,1185.4,150.2,1170,131.3,1170z M131.3,1232.2c-15.4,0-27.9-12.5-27.9-27.9c0-15.4,12.5-27.9,27.9-27.9s27.9,12.5,27.9,27.9
		C159.2,1219.7,146.7,1232.2,131.3,1232.2z"/>
	<path d="M373.8,143.3c-77.7,0-150.8,30.3-205.7,85.2c-54.9,54.9-85.2,128-85.2,205.7s30.3,150.8,85.2,205.7
		c54.9,54.9,128,85.2,205.7,85.2c77.7,0,150.8-30.3,205.7-85.2c54.9-54.9,85.2-128,85.2-205.7s-30.3-150.8-85.2-205.7
		C524.6,173.5,451.5,143.3,373.8,143.3z M570.6,630.9c-52.6,52.6-122.4,81.5-196.8,81.5c-74.3,0-144.2-28.9-196.8-81.5
		c-52.6-52.6-81.5-122.4-81.5-196.8S124.5,290,177,237.4c52.6-52.6,122.4-81.5,196.8-81.5c74.3,0,144.2,28.9,196.8,81.5
		c52.6,52.6,81.5,122.4,81.5,196.8S623.1,578.4,570.6,630.9z"/>
	<path d="M327.5,323.3h92.6v-142h-92.6V323.3z M335.1,317l6.8-8.9c0,0,0.1-0.1,0.1-0.1l0.5-0.8h62.6l0.5,0.8c0,0.1,0.1,0.1,0.1,0.1
		l6.8,8.9H335.1z M413.7,313.5l-5.5-7.2l-1.3-2.2V200.6l1.3-2.2l5.5-7.2V313.5z M412.5,187.7l-6.8,8.9c0,0-0.1,0.1-0.1,0.1l-0.5,0.8
		h-62.6l-0.5-0.8c0-0.1-0.1-0.1-0.1-0.1l-6.8-8.9H412.5z M333.8,191.2l5.5,7.2l1.3,2.2v103.6l-1.3,2.2l-5.5,7.2V191.2z"/>
	<path d="M160.8,592h127.5v-83.1H160.8V592z M169.6,586.3l6.4-4.9l1.9-1.2h93l1.9,1.2l6.4,4.9H169.6z M282.6,585.2l-8-6.1
		c0,0-0.1-0.1-0.1-0.1l-0.7-0.4v-56.2l0.7-0.4c0,0,0.1-0.1,0.1-0.1l8-6.1V585.2z M279.4,514.5l-6.4,4.9l-1.9,1.2h-93l-1.9-1.2
		l-6.4-4.9H279.4z M166.4,515.7l8,6.1c0,0,0.1,0.1,0.1,0.1l0.7,0.4v56.2l-0.7,0.4c0,0-0.1,0.1-0.1,0.1l-8,6.1V515.7z"/>
	<path d="M456.7,592h127.5v-83.1H456.7V592z M465.5,586.3l6.4-4.9l1.9-1.2h93l1.9,1.2l6.4,4.9H465.5z M578.5,585.2l-8-6.1
		c0,0-0.1-0.1-0.1-0.1l-0.7-0.4v-56.2l0.7-0.4c0,0,0.1-0.1,0.1-0.1l8-6.1V585.2z M575.3,514.5l-6.4,4.9l-1.9,1.2h-93l-1.9-1.2
		l-6.4-4.9H575.3z M462.3,515.7l8,6.1c0,0,0.1,0.1,0.1,0.1l0.7,0.4v56.2l-0.7,0.4c0,0-0.1,0.1-0.1,0.1l-8,6.1V515.7z"/>
	<path d="M213.5,441.5c2.3-0.7,4.1-1.7,5.4-3.1c1.8-1.7,3.1-4,4.1-6.8c0.8-2.3,1.2-5,1.2-8.1c0-3.6-0.4-6.6-1.3-9
		c-0.8-2.4-2.1-4.5-3.7-6.2c-1.6-1.7-3.5-2.9-5.8-3.5c-1.7-0.5-4.1-0.7-7.3-0.7h-14.1v38.2h14.5C209.6,442.3,211.8,442,213.5,441.5z
		 M199.9,435.8v-25.3h3.5c3.1,0,5.3,0.1,6.3,0.4c1.4,0.3,2.6,0.9,3.6,1.8c0.9,0.9,1.7,2.1,2.2,3.7c0.5,1.6,0.8,3.9,0.8,6.8
		c0,3-0.3,5.3-0.8,7c-0.5,1.7-1.2,2.9-2,3.7c-0.8,0.7-1.9,1.3-3.1,1.6c-1,0.2-2.5,0.4-4.7,0.4H199.9z"/>
	<rect x="230.5" y="404" width="7.7" height="38.2"/>
	<polygon points="252.7,412.2 260.2,442.3 267.7,442.3 275.3,412.2 275.3,442.3 282.4,442.3 282.4,404 270.9,404 264,430.1 
		257.1,404 245.5,404 245.5,442.3 252.7,442.3 	"/>
	<polygon points="308.5,430.1 301.6,404 290,404 290,442.3 297.2,442.3 297.2,412.2 304.7,442.3 312.2,442.3 319.8,412.2 
		319.8,442.3 326.9,442.3 326.9,404 315.4,404 	"/>
	<polygon points="342.3,425.4 361.5,425.4 361.5,419 342.3,419 342.3,410.5 362.9,410.5 362.9,404 334.6,404 334.6,442.3 
		363.7,442.3 363.7,435.8 342.3,435.8 	"/>
	<path d="M395.6,428.6c-1.1-1.2-2.5-2.2-4.1-3.2c3.4-0.5,5.9-1.7,7.6-3.5c1.7-1.9,2.5-4.2,2.5-7.1c0-2.3-0.6-4.3-1.7-6
		c-1.1-1.8-2.6-3-4.4-3.7s-4.8-1-8.9-1h-16.2v38.2h7.7v-16h1.6c1.8,0,3.1,0.1,3.9,0.4s1.6,0.8,2.3,1.6c0.7,0.8,2.1,2.6,4.1,5.6
		l5.6,8.3h9.2l-4.7-7.5C398.1,431.8,396.6,429.8,395.6,428.6z M383.7,420.2H378v-9.7h6c3.1,0,5,0,5.6,0.1c1.3,0.2,2.2,0.7,2.9,1.5
		c0.7,0.8,1,1.8,1,3.1c0,1.1-0.3,2.1-0.8,2.9c-0.5,0.8-1.2,1.3-2.2,1.6C389.7,420,387.4,420.2,383.7,420.2z"/>
	<path d="M439.9,421.7c3.7-2,5.5-4.7,5.5-8c0-2.4-0.9-4.5-2.7-6.4c-2.2-2.3-5.1-3.4-8.7-3.4c-2.1,0-4,0.4-5.7,1.2
		c-1.7,0.8-3,1.9-4,3.3c-0.9,1.4-1.7,3.2-2.1,5.5l6.8,1.1c0.2-1.7,0.7-2.9,1.6-3.8c0.9-0.9,2-1.3,3.2-1.3c1.3,0,2.3,0.4,3.1,1.1
		c0.8,0.8,1.1,1.8,1.1,3.1c0,1.5-0.5,2.7-1.6,3.6c-1,0.9-2.6,1.3-4.5,1.3l-0.8,6c1.3-0.4,2.4-0.5,3.4-0.5c1.4,0,2.6,0.5,3.6,1.6
		c1,1.1,1.5,2.5,1.5,4.4c0,1.9-0.5,3.5-1.6,4.6c-1,1.1-2.3,1.7-3.8,1.7c-1.4,0-2.6-0.5-3.6-1.4c-1-1-1.6-2.3-1.8-4.1l-7.1,0.9
		c0.4,3.2,1.7,5.8,4,7.8c2.3,2,5.1,3,8.6,3c3.7,0,6.7-1.2,9.2-3.5c2.5-2.4,3.7-5.2,3.7-8.6c0-2.3-0.7-4.3-2-5.9
		C443.9,423.2,442.1,422.2,439.9,421.7z"/>
	<path d="M472.8,439c2.5-3.2,3.8-8.4,3.8-15.6c0-7.3-1.2-12.4-3.7-15.6c-2.1-2.6-5-4-8.7-4c-3.7,0-6.6,1.3-8.7,3.9
		c-2.5,3.2-3.8,8.3-3.8,15.5c0,7.3,1.1,12.4,3.4,15.3c2.3,2.9,5.3,4.3,9,4.3C467.8,442.9,470.7,441.6,472.8,439z M460,432.6
		c-0.5-1.7-0.7-4.8-0.7-9.2c0-4.5,0.3-7.7,0.8-9.6c0.4-1.5,0.9-2.5,1.6-3c0.7-0.6,1.5-0.8,2.4-0.8c0.9,0,1.7,0.3,2.4,0.8
		c0.7,0.6,1.3,1.7,1.7,3.4c0.5,1.7,0.7,4.8,0.7,9.2c0,4.5-0.3,7.7-0.8,9.5c-0.4,1.5-0.9,2.5-1.6,3c-0.7,0.6-1.5,0.8-2.4,0.8
		c-0.9,0-1.7-0.3-2.4-0.8C461.1,435.4,460.5,434.3,460,432.6z"/>
	<path d="M493.8,442.9c3.7,0,6.6-1.3,8.7-3.9c2.5-3.2,3.8-8.4,3.8-15.6c0-7.3-1.2-12.4-3.7-15.6c-2.1-2.6-5-4-8.7-4
		c-3.7,0-6.6,1.3-8.7,3.9c-2.5,3.2-3.8,8.3-3.8,15.5c0,7.3,1.1,12.4,3.4,15.3C487.1,441.5,490.1,442.9,493.8,442.9z M489.8,413.8
		c0.4-1.5,0.9-2.5,1.6-3c0.7-0.6,1.5-0.8,2.4-0.8c0.9,0,1.7,0.3,2.4,0.8c0.7,0.6,1.3,1.7,1.7,3.4c0.5,1.7,0.7,4.8,0.7,9.2
		c0,4.5-0.3,7.7-0.8,9.5c-0.4,1.5-0.9,2.5-1.6,3c-0.7,0.6-1.5,0.8-2.4,0.8c-0.9,0-1.7-0.3-2.4-0.8c-0.7-0.6-1.3-1.7-1.7-3.4
		c-0.5-1.7-0.7-4.8-0.7-9.2C489.1,418.9,489.3,415.7,489.8,413.8z"/>
	<polygon points="526.5,442.3 534.1,413.7 541.7,442.3 549.9,442.3 559.2,404 551.5,404 545.6,430.7 538.9,404 529.7,404 
		522.7,430.3 516.9,404 509,404 518.2,442.3 	"/>
</g>
</svg>
