<?xml version="1.0" encoding="utf-8"?>
<!-- Generator: Adobe Illustrator 21.0.0, SVG Export Plug-In . SVG Version: 6.00 Build 0)  -->
<svg version="1.1" id="Layer_1" xmlns="http://www.w3.org/2000/svg" xmlns:xlink="http://www.w3.org/1999/xlink" x="0px" y="0px"
	 viewBox="0 0 309.4 306.1" style="enable-background:new 0 0 309.4 306.1;" xml:space="preserve">
<style type="text/css">
	.st0{fill:none;}
</style>
<g>
	<title>background</title>
	<rect id="canvas_background" x="-1" y="-1" class="st0" width="311.4" height="308.1"/>
</g>
<g>
	<title>Layer 1</title>
	<path id="svg_1" d="M11.2,200c-8.4-3-12.8-12.2-9.8-20.6l50.4-143C55.1,27,59.2,19.3,65,13C70.6,6.8,78.9,1.9,88.4,1.9
		c9.6,0,17.7,4.8,23.5,10.8c5.9,6.1,10.3,13.7,14.1,23c8.6,21.3,13.4,33.2,13.4,33.3c3.3,8.3-0.7,17.7-9,21c-8.3,3.3-17.7-0.7-21-9
		c0,0-4.7-11.8-13.3-33.1c-4.7-10.3-9.3-11.7-14-0.7L31.7,190.1c-2.4,6.6-8.6,10.8-15.2,10.8C14.7,200.9,13,200.6,11.2,200z M298,98
		c8.5,3,13,12.2,10,20.6l-54.8,151.1c-3.4,9.4-7.6,17.1-13.4,23.4c-5.7,6.2-14.2,11.1-23.8,11.1c-9.7,0-18-4.8-23.9-10.8
		c-6-6.1-10.5-13.7-14.4-23c-8.8-21.4-50.6-133.9-50.6-133.9c-3.3-8.3,0.7-17.7,9.2-21c8.4-3.3,18,0.7,21.3,9
		c0,0.1,41.8,112.5,50.6,133.8c4.8,10.3,9.5,11.7,14.2,0.6l54.7-151.1c2.4-6.6,8.7-10.8,15.5-10.8C294.4,97.1,296.2,97.4,298,98
		L298,98z"/>
</g>
</svg>
