<?xml version="1.0" encoding="utf-8"?>
<!-- Generator: Adobe Illustrator 21.0.0, SVG Export Plug-In . SVG Version: 6.00 Build 0)  -->
<svg version="1.1" id="Layer_1" xmlns="http://www.w3.org/2000/svg" xmlns:xlink="http://www.w3.org/1999/xlink" x="0px" y="0px"
	 viewBox="0 0 729.5 1417.3" style="enable-background:new 0 0 729.5 1417.3;" xml:space="preserve">
<g>
	<rect x="324.3" y="1326.2" width="72.7" height="20.5"/>
	<path d="M397.2,1299.6l-4.4,1.9v1.9h-2v2.9h2v8.5c0,1.2,0.7,1.9,1.5,2.7c1,0.5,2,0.5,2.9,0.5c0.7,0,1.5,0,2.2-0.2v-2.7
		c-0.7,0-1,0-1.5,0c-0.5,0-0.7-0.5-0.7-0.7v-8h2.2v-2.9h-2.2V1299.6z"/>
	<rect x="430.2" y="1298.3" width="3.9" height="19.5"/>
	<path d="M408.7,1312.7c0,1-0.2,2-0.7,2.2c-0.2,0.2-0.7,0.2-1,0.2c-1-0.5-0.7-1.5-0.7-2.4v-8.8h-4.4v10.3c0,1.5,0.5,2.4,1.5,3.2
		c0.7,0.7,1.2,0.7,2.4,0.7c1,0,2-0.2,2.9-1v0.7h4.2V1304h-4.2V1312.7z"/>
	<path d="M425.8,1304.5c-1-0.7-1.5-1-2.4-1c-1.2,0-2,0.5-2.9,1v-6.1H416v19.5h4.4v-9.3c0-1,0.2-1.7,0.5-1.9c0.5-0.3,0.7-0.3,1.2,0
		c0.7,0.2,0.7,1.2,0.7,2.2v9h4.2v-10.3C427,1306.2,426.8,1304.9,425.8,1304.5z"/>
	<path d="M345,1317.9h4.4v-10.3c0-1.5-0.2-2.7-1.2-3.2c-1-0.7-1.5-1-2.7-1c-1,0-2,0.5-2.9,1v-0.5h-4.2v13.9h4.2v-8.8
		c0-1.2,0.2-1.9,0.7-2.4c0.5-0.3,0.7-0.3,1,0c1,0.2,0.7,1.2,0.7,2.2V1317.9z"/>
	<path d="M378.7,1313c-0.2,1.4,0,3.1,1.2,4.1c1,0.7,2.4,1.2,4.1,1.2c2,0,3.2-0.5,4.2-1.2c1-0.7,1.5-2,1.5-2.9c0-1.2-0.2-1.9-0.7-2.7
		c-0.7-0.7-2.4-2-3.7-2.5c-1.5-0.7-2.2-1.2-2.2-1.9c0-0.5,0.2-1,1-1c1.2,0,1.2,1.2,1.2,1.9h3.9c0-1.7-0.2-2.9-1.2-3.6s-2.2-1-3.9-1
		c-1.7,0-2.9,0.3-3.7,1c-1,0.7-1.7,1.7-1.7,2.9c0,1.2,0.2,2.2,1.2,2.9c1.2,1.2,3.2,1.7,4.9,2.9c0.2,0.2,0.2,0.5,0.2,1
		c0,0.5-0.2,1.2-1,1.2c-1.5,0-1.2-1.5-1.2-2.4H378.7z"/>
	<path d="M376.3,1317.9v-10.3c0-1.5-0.2-2.7-1.2-3.2c-1-0.7-1.5-1-2.4-1c-1.2,0-2,0.5-2.9,1v-0.5h-4.4v13.9h4.4v-8.8
		c0-1.2,0-1.9,0.5-2.4c0.5-0.3,0.7-0.3,1.2,0c0.7,0.2,0.7,1.2,0.7,2.2v9H376.3z"/>
	<path d="M362.8,1312v-4.1c0-2.4-2.2-4.4-4.6-4.4c-0.5,0-1,0-1.7,0c-2.4,0-4.4,2-4.4,4.4v5.8c0,2.4,2,4.4,4.4,4.4c0.7,0,1.2,0,1.7,0
		c2.4,0,4.6-2,4.6-4.4v-0.7h-4.4v1.4c0,0.7-0.5,1.2-1,1.2c-0.7,0-1.2-0.5-1.2-1.2v-2.4C358.4,1312,360.6,1312,362.8,1312z
		 M356.2,1307.1c0-0.5,0.5-1,1.2-1c0.5,0,1,0.5,1,1v1.9h-2.2V1307.1z"/>
	<path d="M317.2,1303.5c-0.5,0-1,0-1.7,0c-2.4,0-4.4,2-4.4,4.4v5.8c0,2.4,2,4.4,4.4,4.4c0.7,0,1.2,0,1.7,0c2.7,0,4.6-2,4.6-4.4v-0.7
		h-4.4v1.4c0,0.7-0.5,1.2-1,1.2c-0.7,0-1.2-0.5-1.2-1.2v-2.4c2.2,0,4.4,0,6.6,0v-4.1C321.8,1305.4,319.9,1303.5,317.2,1303.5z
		 M317.4,1309.1h-2.2v-1.9c0-0.5,0.5-1,1.2-1c0.5,0,1,0.5,1,1V1309.1z"/>
	<path d="M307.4,1304c-0.5,0.2-0.7,0.5-1,0.7v-0.7h-4.1v13.9h4.1v-8.1c0-0.7,0-1.4,1-2.2c0.7-0.5,1.2-1,2.2-0.7v-2.9
		C309.1,1303.7,308.2,1303.7,307.4,1304z"/>
	<path d="M296.4,1303.5c-1.2-0.2-2.4-0.2-3.9,1v-4.9h-4.2v13.9c0,4.4,2.7,4.9,5.6,4.9s5.4-1.5,5.4-4.4v-6.1c0-1,0-1.7-0.5-2.4
		C298.1,1304.7,297.4,1304,296.4,1303.5z M295,1314.4c0,0.7-0.5,1.2-1.2,1.2c-0.7,0-1.2-0.5-1.2-1.2v-6.8c0-0.5,0.5-1,1.2-1
		c0.7,0,1.2,0.5,1.2,1V1314.4z"/>
	<path d="M328.7,1309.1c0-1.2,0.2-1.9,0.5-2.4c0.5-0.3,1-0.3,1.2,0c1,0.2,0.7,1.2,0.7,2.2v9h4.4v-10.3c0-1.5-0.5-2.7-1.5-3.2
		c-1-0.7-1.2-1-2.4-1c-1,0-2,0.5-2.9,1v-0.5h-4.4v13.9h4.4V1309.1z"/>
	<rect x="324.3" y="1274.9" width="72.7" height="20.3"/>
	<path d="M361.2,1025.3c-39.1,0-71,31.9-71,71s31.9,71,71,71c39.1,0,71-31.9,71-71S400.4,1025.3,361.2,1025.3z M361.2,1161.3
		c-35.8,0-65-29.2-65-65s29.2-65,65-65s65,29.2,65,65S397.1,1161.3,361.2,1161.3z"/>
	<path d="M546.5,228.4c-48.7-48.5-113.3-75.2-181.7-75.2c-68.4,0-133,26.7-181.7,75.2c-48.5,48.5-75.2,113-75.2,181.7
		c0,68.5,26.7,133,75.2,181.5c48.7,48.5,113.3,75.2,181.7,75.2c68.4,0,133-26.7,181.7-75.2c48.5-48.5,75.2-113,75.2-181.5
		C621.7,341.5,595,276.9,546.5,228.4z M538.5,583.9c-46.6,46.3-108.3,71.9-173.7,71.9c-65.5,0-127.2-25.5-173.7-71.8
		c-46.3-46.6-71.9-108.3-71.9-173.7c0-65.5,25.5-127.2,71.8-173.7c46.3-46.3,108-71.8,173.7-71.8c65.7,0,127.4,25.5,173.7,71.8
		c46.3,46.6,71.9,108.3,71.9,173.7C610.3,475.6,584.8,537.3,538.5,583.9z"/>
	<path d="M596.9,410.2c0-9.6-0.3-16.5-1.1-23.3v-2.1l-0.2-0.2c0-0.6,0-1.2-0.2-1.9v-0.8l0-0.5c-0.2-0.6-0.2-1.2-0.2-1.8l-0.2-0.8
		v-0.1c0-0.4-0.1-0.8-0.1-1.1c0-0.3-0.1-0.6-0.1-0.9l-0.2-1l-0.2-1.5v-0.7l0-0.5c-0.1-0.3-0.2-0.6-0.2-0.9c-0.1-0.3-0.1-0.7-0.2-1
		l0-0.7c-4-23.4-11.7-46-22.6-67.2l-0.2-0.4l-0.2,0c-0.1-0.2-0.2-0.4-0.3-0.6c-0.2-0.3-0.3-0.6-0.4-0.9l-0.5-1
		c-0.1-0.2-0.2-0.4-0.4-0.6c-0.2-0.3-0.4-0.6-0.5-1l-0.5-1l-1.3-2l-0.1-0.1c-0.1-0.3-0.3-0.6-0.5-0.9c-0.2-0.3-0.3-0.5-0.4-0.8
		l-0.4-0.7v-0.3l-0.2-0.2c-0.4-0.4-0.6-0.7-0.8-1.2l-4.3-7.3v0.4c-9.1-14.1-19.3-26.8-31.1-38.6c-44-44-102.3-68.2-164.2-68.2
		c-62,0-120.3,24.2-164.2,68.2c-43.8,43.8-67.9,102.1-67.9,164.2c0,62.1,24.1,120.4,67.9,164.2c43.8,43.8,102.1,67.9,164.2,67.9
		c62.1,0,120.4-24.1,164.2-67.9c11.8-11.8,22-24.5,31.1-38.6v0.4l4.3-7.4c0.2-0.4,0.4-0.8,0.8-1.2l0.6-1.4c0.2-0.3,0.4-0.8,0.5-0.9
		l0.7-1.4l0.9-1.1l0.5-1.3c0.1-0.2,0.3-0.5,0.4-0.8c0.2-0.3,0.4-0.6,0.5-0.8l1.1-2.2l0.1-0.1l0.2-0.5l0.2,0l0.2-0.5
		c0.2-0.6,0.4-1.1,0.6-1.5l0.5-1c0.2-0.6,0.4-1.1,0.6-1.5l0.7-1.2l1.8-4l0.5-0.7l0.1-0.2c0.2-0.6,0.4-1.3,0.6-1.6l0.5-0.7l0.1-0.2
		c0.1-0.3,0.2-0.6,0.3-0.9c0.1-0.3,0.2-0.6,0.3-0.9l0.4-1.1l0.7-1.4l1.2-2.8l0.2-0.7l0-0.3c0-0.1,0.1-0.2,0.2-0.3
		c0.2-0.4,0.4-0.8,0.6-1.2l0.3-0.9c0.1-0.3,0.2-0.6,0.3-0.9c0.1-0.3,0.2-0.6,0.4-1l0.2-0.7l0-0.3c0.1-0.3,0.2-0.5,0.3-0.8
		c0.1-0.3,0.2-0.5,0.3-0.8l1.4-3.6c0.1-0.3,0.2-0.7,0.2-1c0-0.2,0.1-0.5,0.1-0.6l0.3-0.3l1.2-3.9c0.2-0.3,0.2-0.6,0.3-0.8
		c0.1-0.2,0.1-0.4,0.2-0.6l0.9-3l0.2-0.8c0.2-0.3,0.5-1.1,0.5-2l0.2-0.6c0.2-0.7,0.5-1.4,0.5-2.1l0.2-0.6
		c3.5-12.7,5.7-25.4,6.9-38.7l0-0.2C596.7,423.5,596.9,416.8,596.9,410.2z M565,302.2c13.7,25.2,22.3,52.3,25.6,80.6H565V302.2z
		 M149.1,338.1c4.3-12.8,9.6-24.9,15.7-36v80.6h-25.8C140.8,367.3,144.2,352.3,149.1,338.1z M164.7,518.1
		c-6.5-12.1-11.9-24.7-16.1-37.5c-5-15.2-8.3-30.9-9.9-46.5h26V518.1z M565,518.1v-84h25.8C587.7,463.6,579.1,491.8,565,518.1z
		 M591.4,429.5h-31.3v97.2c-9.9,16.4-21.5,31.2-34.4,44.2c-42.9,43.1-100,66.8-160.9,66.8c-60.7,0-117.8-23.7-160.9-66.8
		c-13.3-13.3-24.8-28.1-34.4-44.1v-97.2h-31.3c-0.4-5.8-0.9-12.8-0.9-19.3c0-7,0.3-13.9,1.1-22.5l31.1,0v-94.2
		c9.6-15.8,21.2-30.7,34.4-44.1c43.2-42.9,100.3-66.6,160.9-66.6c60.8,0,118,23.7,160.9,66.6c13,13.3,24.6,28.2,34.4,44.4v94h31.1v0
		c0.7,8.6,1.1,15.6,1.1,22.5C592.3,416.7,591.8,423.7,591.4,429.5z"/>
	<circle cx="481.7" cy="410.1" r="33.1"/>
	<circle cx="247.8" cy="410.1" r="33.1"/>
	<path d="M617,113.1c-61.4-61.4-143.1-95.3-230-95.3h-44.6c-86.9,0-168.5,33.8-230,95.3c-61.4,61.4-95.3,143.1-95.3,230v776.6
		c0,81.3,27.5,150.3,79.4,199.6c27.7,26.3,62.2,46.6,102.4,60.5c42.5,14.6,91.6,22,146.1,22h39.3c54.5,0,103.6-7.4,146.1-22
		c40.2-13.8,74.7-34.2,102.4-60.5c51.9-49.3,79.4-118.3,79.4-199.6V343.1C712.3,256.2,678.4,174.5,617,113.1z M29.2,343.1
		c0-83.7,32.6-162.3,91.7-221.5c59.2-59.2,137.8-91.7,221.5-91.7H387c83.7,0,162.3,32.6,221.5,91.7c59.2,59.2,91.7,137.8,91.7,221.5
		v776.6c0,3-0.1,6-0.1,9H558.4V631.1c65.5-56.5,103-138.3,103-224.8c0-79.3-30.9-153.8-86.9-209.8c-56-56.1-130.5-87-209.8-87
		l-0.1,0l-0.2,0c-79.2,0.1-153.7,31-209.7,87c-56,56.1-86.9,130.6-86.9,209.8c0,86.4,37.5,168.3,103,224.8v497.6H29.4
		c-0.1-3-0.1-6-0.1-9V343.1z M488.8,1128.7c-5.9,0-10.7,4.8-10.7,10.7l0,94.8c-15.6,5.6-32.6,8.7-49.5,8.7H300.8
		c-17,0-33.9-3-49.5-8.7l0-94.8c0-5.9-4.8-10.7-10.7-10.7h-62.7V627.9l-1.2-1C112,571.6,74.9,491.3,74.9,406.3
		c0-77.4,30.1-150.2,84.8-204.9c54.7-54.7,127.5-84.9,204.8-84.9l0.2,0c77.4,0,150.1,30.2,204.8,84.9
		c54.7,54.7,84.8,127.5,84.8,204.9c0,84.9-37.1,165.3-101.8,220.5l-1.2,1v500.8H488.8z M551.4,1135.7v7c0,27.7-13.4,53.4-37.8,72.2
		c-8.6,6.6-18.2,12.2-28.6,16.6l0-92.1c0-2,1.6-3.7,3.7-3.7H551.4z M177.9,1135.7h62.7c2,0,3.7,1.6,3.7,3.7l0,92.1
		c-10.4-4.4-20-9.9-28.6-16.5c-24.3-18.8-37.8-44.4-37.8-72.2V1135.7z M104.9,1310.6c-46.1-43.7-71.9-103.9-75.3-174.9h141.3v7
		c0,30,14.4,57.5,40.5,77.7c9.8,7.5,20.9,13.8,32.9,18.6l-0.1,140.8c-14.4-3.1-28.2-6.9-41.2-11.4
		C164.3,1355.1,131.4,1335.7,104.9,1310.6z M345.1,1389.8c-33.5,0-64.9-2.9-93.9-8.5l0.1-139.7c15.7,5.4,32.6,8.3,49.5,8.3h127.8
		c16.9,0,33.8-2.9,49.5-8.3l-0.1,139.7c-28.9,5.6-60.2,8.5-93.6,8.5H345.1z M624.6,1310.6c-26.5,25.1-59.4,44.6-98,57.8
		c-13.2,4.5-27.1,8.4-41.6,11.5l0.1-140.9c12-4.8,23.1-11,32.9-18.6c26.1-20.2,40.5-47.8,40.5-77.7v-7h141.4
		C696.5,1206.6,670.7,1266.9,624.6,1310.6z"/>
</g>
<g>
	<circle cx="361.2" cy="1096.3" r="60.5"/>
</g>
</svg>
