<?xml version="1.0" encoding="utf-8"?>
<!-- Generator: Adobe Illustrator 21.0.0, SVG Export Plug-In . SVG Version: 6.00 Build 0)  -->
<svg version="1.1" id="Layer_1" xmlns="http://www.w3.org/2000/svg" xmlns:xlink="http://www.w3.org/1999/xlink" x="0px" y="0px"
	 viewBox="0 0 452.5 1417.3" style="enable-background:new 0 0 452.5 1417.3;" xml:space="preserve">
<style type="text/css">
	.pair {
		animation: pair 2s infinite;
	}
	
	@keyframes pair {
		0%, 20%, 80%, 100% {
			fill: rgba(255,255,255,0);
		}
		50% {
			fill: #0074CC;
		}
	}
</style>
<g>
	<path d="M435.2,14.4H17.6c-3.7,0-6.7,3-6.7,6.7v1376.3c0,3.7,3,6.7,6.7,6.7h417.6c3.7,0,6.7-3,6.7-6.7V21.2
		C441.9,17.5,438.9,14.4,435.2,14.4z M428.5,27.9v1362.9H24.3V27.9H428.5z"/>
	<path d="M35.5,1383.1h381.8c2,0,3.6-1.6,3.6-3.6V39.1c0-2-1.6-3.6-3.6-3.6H35.5c-2,0-3.6,1.6-3.6,3.6v1340.5
		C31.9,1381.5,33.5,1383.1,35.5,1383.1z M39.1,1376V42.7h374.7V1376H39.1z"/>
	<path d="M277.9,948.1h-103c-3.4,0-6.2,2.8-6.2,6.2v32.7c0,3.4,2.8,6.2,6.2,6.2h103c3.4,0,6.2-2.8,6.2-6.2v-32.7
		C284.1,950.8,281.3,948.1,277.9,948.1z M280.1,954.2v32.7c0,1.2-1,2.2-2.2,2.2h-103c-1.2,0-2.2-1-2.2-2.2v-32.7
		c0-1.2,1-2.2,2.2-2.2h103C279.1,952,280.1,953,280.1,954.2z"/>
	<path d="M212.1,137.9L212.1,137.9c0.2,0.1,0.4,0.1,0.7,0.1c0.8,0,1.6-0.5,1.9-1.3l4.9-14c0.2-0.4,0.3-0.5,0.3-0.5
		c0,0,0.2,0.1,0.4,0.6c0.8,2.1,1.3,3.2,1.3,3.2c0.4,1,1.6,1.5,2.6,1.1c0.5-0.2,0.9-0.6,1.1-1.1c0.2-0.5,0.2-1,0-1.5l0,0
		c-0.1-0.2-0.4-0.9-1.3-3.3c-0.4-1-0.9-1.8-1.5-2.4c-0.7-0.8-1.7-1.2-2.6-1.2c-0.9,0-1.9,0.4-2.6,1.2c-0.6,0.6-1,1.4-1.4,2.4
		l-4.9,14C210.5,136.4,211,137.5,212.1,137.9z"/>
	<path d="M224.3,128.9c-0.5,0.2-0.9,0.6-1.1,1.1c-0.2,0.5-0.2,1,0,1.5c0.1,0.3,4.1,11,5,13.1c0.4,1,0.9,1.8,1.5,2.4
		c0.7,0.8,1.7,1.2,2.6,1.2c1,0,1.9-0.4,2.6-1.2c0.6-0.6,1-1.4,1.4-2.4l5.4-14.8c0.2-0.5,0.1-1-0.1-1.5c-0.2-0.5-0.6-0.8-1.1-1
		c-0.2-0.1-0.4-0.1-0.7-0.1c-0.8,0-1.6,0.5-1.9,1.3l-5.3,14.8c-0.2,0.4-0.3,0.5-0.3,0.5c0,0-0.2-0.1-0.4-0.6c-0.8-2-4.6-12.1-4.9-13
		l0-0.1C226.5,129,225.3,128.5,224.3,128.9z"/>
	<path d="M226.2,160.5c15.2,0,27.6-12.4,27.6-27.6s-12.4-27.6-27.6-27.6s-27.6,12.4-27.6,27.6S211,160.5,226.2,160.5z M203.7,132.9
		c0-12.4,10.1-22.6,22.6-22.6c12.4,0,22.6,10.1,22.6,22.6s-10.1,22.6-22.6,22.6C213.8,155.5,203.7,145.4,203.7,132.9z"/>
	<path d="M193.6,952.9h-15.7c-2.3,0-4.2,1.9-4.2,4.2V984c0,2.3,1.9,4.2,4.2,4.2h15.7c2.3,0,4.2-1.9,4.2-4.2v-26.9
		C197.8,954.8,195.9,952.9,193.6,952.9z M193.6,957.1V984l-15.7,0l0-26.9L193.6,957.1z"/>
	<path d="M153.1,780.8c-5.8,0-10.6,4.8-10.6,10.6s4.8,10.6,10.6,10.6c5.8,0,10.6-4.8,10.6-10.6S158.9,780.8,153.1,780.8z"/>
	<path d="M174.4,770.6h-42.6c-2.4,0-4.5,1.2-5.7,3.2c-1.2,1.9-1.2,4.3-0.2,6.3l21.4,38.8c1.1,2.2,3.3,3.5,5.8,3.5c0,0,0.1,0,0.1,0
		c2.4,0,4.6-1.2,5.8-3.3l21.3-38.8c1.1-2,1.1-4.4,0-6.4C178.9,771.9,176.8,770.6,174.4,770.6z M167.1,791.4c0,7.7-6.3,14-14,14
		c-7.7,0-14-6.3-14-14s6.3-14,14-14C160.8,777.4,167.1,783.7,167.1,791.4z"/>
	<path d="M307.8,770.6c0,0-0.1,0-0.1,0c-2.4,0-4.6,1.2-5.8,3.3l-21.3,38.8c-1.1,2-1.1,4.4,0,6.4c1.2,2.1,3.3,3.3,5.8,3.3h42.6
		c2.4,0,4.5-1.2,5.7-3.2c1.2-1.9,1.2-4.3,0.2-6.3l-21.4-38.8C312.5,772,310.3,770.7,307.8,770.6z M305.5,787.1c0-1.2,1-2.2,2.2-2.2
		s2.2,1,2.2,2.2v25.3c0,1.2-1,2.2-2.2,2.2s-2.2-1-2.2-2.2V787.1z"/>
	<path d="M197.3,857.8v-12.4c0-6.4-5.2-11.7-11.7-11.7h-66.9c-6.4,0-11.7,5.2-11.7,11.7v12.4c0,6.4,5.2,11.7,11.7,11.7h66.9
		C192.1,869.5,197.3,864.3,197.3,857.8z M185.6,865.5h-66.9c-4.3,0-7.7-3.5-7.7-7.7v-12.4c0-4.3,3.5-7.7,7.7-7.7h66.9
		c4.3,0,7.7,3.5,7.7,7.7v12.4C193.3,862.1,189.9,865.5,185.6,865.5z"/>
	<path d="M334.1,833.7h-66.9c-6.4,0-11.7,5.2-11.7,11.7v12.4c0,6.4,5.2,11.7,11.7,11.7h66.9c6.4,0,11.7-5.2,11.7-11.7v-12.4
		C345.7,839,340.5,833.7,334.1,833.7z M341.8,845.4v12.4c0,4.3-3.5,7.7-7.7,7.7h-66.9c-4.3,0-7.7-3.5-7.7-7.7v-12.4
		c0-4.3,3.5-7.7,7.7-7.7h66.9C338.3,837.7,341.8,841.1,341.8,845.4z"/>
	<path d="M118.7,705.3h66.9c6.4,0,11.7-5.2,11.7-11.7v-12.4c0-6.4-5.2-11.7-11.7-11.7h-66.9c-6.4,0-11.7,5.2-11.7,11.7v12.4
		C107,700.1,112.3,705.3,118.7,705.3z M111,693.7v-12.4c0-4.3,3.5-7.7,7.7-7.7h66.9c4.3,0,7.7,3.5,7.7,7.7v12.4
		c0,4.3-3.5,7.7-7.7,7.7h-66.9C114.4,701.4,111,697.9,111,693.7z"/>
	<path d="M118.7,595.5h66.9c6.4,0,11.7-5.2,11.7-11.7v-12.4c0-6.4-5.2-11.7-11.7-11.7h-66.9c-6.4,0-11.7,5.2-11.7,11.7v12.4
		C107,590.3,112.3,595.5,118.7,595.5z M111,583.8v-12.4c0-4.3,3.5-7.7,7.7-7.7h66.9c4.3,0,7.7,3.5,7.7,7.7v12.4
		c0,4.3-3.5,7.7-7.7,7.7h-66.9C114.4,591.5,111,588.1,111,583.8z"/>
	<path d="M118.7,485.7h66.9c6.4,0,11.7-5.2,11.7-11.7v-12.4c0-6.4-5.2-11.7-11.7-11.7h-66.9c-6.4,0-11.7,5.2-11.7,11.7V474
		C107,480.4,112.3,485.7,118.7,485.7z M111,474v-12.4c0-4.3,3.5-7.7,7.7-7.7h66.9c4.3,0,7.7,3.5,7.7,7.7V474c0,4.3-3.5,7.7-7.7,7.7
		h-66.9C114.4,481.7,111,478.2,111,474z"/>
	<path d="M118.7,375.8h66.9c6.4,0,11.7-5.2,11.7-11.7v-12.4c0-6.4-5.2-11.7-11.7-11.7h-66.9c-6.4,0-11.7,5.2-11.7,11.7v12.4
		C107,370.6,112.3,375.8,118.7,375.8z M111,364.2v-12.4c0-4.3,3.5-7.7,7.7-7.7h66.9c4.3,0,7.7,3.5,7.7,7.7v12.4
		c0,4.3-3.5,7.7-7.7,7.7h-66.9C114.4,371.9,111,368.4,111,364.2z"/>
	<path d="M286.2,383.5h42.4c7.3,0,13.3-6,13.3-13.3v-30.5c0-7.3-6-13.3-13.3-13.3h-42.4c-7.3,0-13.3,6-13.3,13.3v30.5
		C273,377.6,278.9,383.5,286.2,383.5z M279.4,355c0-4.2,3.4-7.7,7.7-7.7c4.2,0,7.7,3.4,7.7,7.7s-3.4,7.7-7.7,7.7
		C282.8,362.7,279.4,359.2,279.4,355z M299.8,355c0-4.2,3.4-7.7,7.7-7.7s7.7,3.4,7.7,7.7s-3.4,7.7-7.7,7.7S299.8,359.2,299.8,355z
		 M320.2,355c0-4.2,3.4-7.7,7.7-7.7s7.7,3.4,7.7,7.7s-3.4,7.7-7.7,7.7S320.2,359.2,320.2,355z"/>
	<path d="M286.2,606.1h42.4c7.3,0,13.3-6,13.3-13.3v-30.5c0-7.3-6-13.3-13.3-13.3h-42.4c-7.3,0-13.3,6-13.3,13.3v30.5
		C273,600.2,278.9,606.1,286.2,606.1z M299.8,577.6c0-4.2,3.4-7.7,7.7-7.7s7.7,3.4,7.7,7.7s-3.4,7.7-7.7,7.7
		S299.8,581.9,299.8,577.6z"/>
	<path d="M286.2,715.2h42.4c7.3,0,13.3-6,13.3-13.3v-30.5c0-7.3-6-13.3-13.3-13.3h-42.4c-7.3,0-13.3,6-13.3,13.3v30.5
		C273,709.2,278.9,715.2,286.2,715.2z M300.7,675.2c-5.2,2.7-8.5,8-8.5,13.8c0,8.6,7,15.5,15.5,15.5c8.5,0,15.5-7,15.5-15.5
		c0-6.7-3-11.6-8.4-13.9c-0.8-0.3-1.3-1.1-1.3-1.9c0-0.3,0.1-0.6,0.2-0.8c0.5-1.1,1.7-1.6,2.7-1.1c6.9,2.9,10.9,9.4,10.9,17.7
		c0,10.9-8.8,19.7-19.7,19.7c-10.9,0-19.7-8.8-19.7-19.7c0-7.4,4.1-14.2,10.8-17.5c1-0.5,2.3-0.1,2.8,0.9c0.1,0.3,0.2,0.6,0.2,0.9
		C301.9,674.1,301.4,674.8,300.7,675.2z M309.9,684.3c0,1.2-0.9,2.1-2.1,2.1c-1.2,0-2.1-0.9-2.1-2.1v-17.6c0-1.2,0.9-2.1,2.1-2.1
		c1.2,0,2.1,0.9,2.1,2.1V684.3z"/>
	<path d="M286.2,497.1h42.4c7.3,0,13.3-6,13.3-13.3v-30.5c0-7.3-6-13.3-13.3-13.3h-42.4c-7.3,0-13.3,6-13.3,13.3v30.5
		C273,491.1,278.9,497.1,286.2,497.1z M287.5,468.5c0-4.2,3.4-7.7,7.7-7.7c4.2,0,7.7,3.4,7.7,7.7s-3.4,7.7-7.7,7.7
		C290.9,476.2,287.5,472.8,287.5,468.5z M312.4,468.5c0-4.2,3.4-7.7,7.7-7.7s7.7,3.4,7.7,7.7s-3.4,7.7-7.7,7.7
		S312.4,472.8,312.4,468.5z"/>
	<path d="M186.9,1001.4L186.9,1001.4c-0.4-0.5-0.9-0.8-1.6-1.1c-0.6-0.3-1.4-0.4-2.3-0.4c-0.9,0-1.6,0.1-2.2,0.2
		c-0.6,0.1-1.1,0.3-1.4,0.4l-0.3,0.1l0.3,2.2l0.5-0.2c0.2-0.1,0.5-0.2,1-0.3c0.4-0.1,1.1-0.2,2-0.2c0.6,0,1.1,0.1,1.4,0.3
		c0.3,0.2,0.6,0.4,0.8,0.7c0.2,0.3,0.3,0.6,0.4,1c0.1,0.4,0.1,0.8,0.1,1.3v0.3c-0.2,0-0.3-0.1-0.5-0.1c-0.3,0-0.5-0.1-0.8-0.1
		c-1.2-0.1-2.2,0-3.1,0.2c-0.7,0.2-1.3,0.4-1.9,0.8c-0.5,0.4-1,0.8-1.3,1.4c-0.3,0.6-0.4,1.2-0.4,2c0,0.8,0.1,1.5,0.4,2
		c0.3,0.6,0.6,1,1.1,1.4c0.5,0.4,1,0.6,1.7,0.8c0.6,0.2,1.3,0.2,2,0.2c0.5,0,1.1,0,1.6-0.1c0.5,0,1-0.1,1.4-0.2
		c0.4-0.1,0.8-0.1,1.1-0.2c0.3-0.1,0.6-0.1,0.8-0.2l0.3-0.1v-8.5c0-0.7-0.1-1.4-0.3-2C187.6,1002.5,187.3,1001.9,186.9,1001.4z
		 M185.6,1007.9v4c-0.3,0-0.5,0.1-0.9,0.1c-0.5,0-1,0.1-1.6,0.1c-0.5,0-0.9,0-1.3-0.1c-0.4-0.1-0.7-0.2-0.9-0.4
		c-0.2-0.2-0.4-0.4-0.5-0.7c-0.1-0.3-0.2-0.6-0.2-1.1c0-0.5,0.1-0.8,0.3-1.1c0.2-0.3,0.5-0.5,0.8-0.7c0.3-0.2,0.7-0.3,1.1-0.3
		c0.4-0.1,0.8-0.1,1.2-0.1c0.7,0,1.2,0,1.6,0.1C185.3,1007.8,185.5,1007.9,185.6,1007.9z"/>
	<rect x="194" y="1005.2" width="6.5" height="2.4"/>
	<path d="M216.8,1002L216.8,1002c-0.5-0.6-1.2-1.2-2-1.5c-0.8-0.4-1.7-0.5-2.7-0.5c-0.9,0-1.7,0.1-2.4,0.4c-0.3,0.1-0.6,0.2-0.8,0.4
		v-7.1l-2.4,0.4v19.5l0.3,0.1c0.5,0.2,1.1,0.3,1.9,0.5c0.8,0.2,1.8,0.2,3,0.2c1,0,1.9-0.2,2.8-0.5c0.8-0.3,1.6-0.8,2.2-1.4
		c0.6-0.6,1.1-1.4,1.4-2.3c0.3-0.9,0.5-1.9,0.5-3c0-1-0.1-2-0.4-2.9C217.8,1003.4,217.4,1002.6,216.8,1002z M215.9,1007.1
		c0,1.6-0.4,2.8-1.2,3.7c-0.8,0.8-1.8,1.2-3.1,1.2c-0.8,0-1.4,0-1.9-0.1c-0.3,0-0.6-0.1-0.8-0.1v-8.6c0.1-0.1,0.2-0.2,0.4-0.2
		c0.2-0.1,0.5-0.2,0.7-0.3c0.3-0.1,0.6-0.2,0.9-0.3c0.3-0.1,0.7-0.1,1-0.1c0.7,0,1.4,0.1,1.8,0.4c0.5,0.3,0.9,0.6,1.2,1
		c0.3,0.4,0.5,1,0.7,1.6C215.9,1005.8,215.9,1006.4,215.9,1007.1z"/>
	<rect x="223.8" y="1005.2" width="6.5" height="2.4"/>
	<path d="M245,1011.4c-0.2,0.1-0.5,0.2-1,0.4c-0.4,0.1-1,0.2-1.7,0.2c-0.8,0-1.5-0.1-2-0.4c-0.5-0.2-1-0.6-1.3-1
		c-0.3-0.4-0.6-0.9-0.7-1.5c-0.2-0.6-0.2-1.3-0.2-2c0-1.6,0.3-2.9,1-3.7c0.7-0.8,1.7-1.3,3-1.3c0.7,0,1.2,0,1.6,0.1
		c0.4,0.1,0.7,0.2,1.1,0.4l0.4,0.2l0.7-2.2l-0.3-0.2c-0.4-0.2-0.9-0.4-1.5-0.5c-0.6-0.1-1.3-0.2-2.1-0.2c-1,0-1.9,0.2-2.7,0.5
		c-0.8,0.3-1.5,0.9-2,1.5c-0.6,0.6-1,1.4-1.3,2.3c-0.3,0.9-0.4,1.9-0.4,2.9c0,1,0.1,2,0.4,2.9c0.3,0.9,0.7,1.6,1.2,2.3
		c0.6,0.6,1.3,1.1,2.1,1.5c0.8,0.3,1.8,0.5,2.8,0.5c0.7,0,1.5-0.1,2.1-0.3c0.7-0.2,1.2-0.3,1.5-0.5l0.3-0.1l-0.6-2.2L245,1011.4z"/>
	<rect x="250.4" y="1005.2" width="6.5" height="2.4"/>
	<path d="M271.7,1000.7c-0.2-0.1-0.5-0.2-0.8-0.4c-0.7-0.3-1.5-0.4-2.4-0.4c-1,0-1.9,0.2-2.7,0.5c-0.8,0.4-1.5,0.9-2,1.5
		c-0.5,0.6-0.9,1.4-1.2,2.3c-0.3,0.9-0.4,1.8-0.4,2.9c0,1.1,0.2,2.1,0.5,3c0.3,0.9,0.8,1.7,1.4,2.3c0.6,0.6,1.3,1.1,2.2,1.4
		c0.8,0.3,1.8,0.5,2.8,0.5c1.2,0,2.2-0.1,3-0.2c0.8-0.2,1.4-0.3,1.9-0.5l0.3-0.1v-19.9l-2.4,0.4V1000.7z M271.3,1002.9
		c0.1,0.1,0.3,0.2,0.4,0.2v8.6c-0.2,0-0.5,0.1-0.8,0.1c-0.5,0.1-1.1,0.1-1.9,0.1c-1.3,0-2.3-0.4-3.1-1.2c-0.8-0.8-1.2-2.1-1.2-3.7
		c0-0.7,0.1-1.4,0.2-2c0.1-0.6,0.4-1.1,0.7-1.6c0.3-0.4,0.7-0.8,1.2-1c0.5-0.3,1.1-0.4,1.8-0.4c0.4,0,0.7,0,1,0.1
		c0.3,0.1,0.6,0.2,0.9,0.3C270.9,1002.7,271.1,1002.8,271.3,1002.9z"/>
</g>
<g>
	<path class="pair" d="M118.7,698.9c-2.9,0-5.2-2.3-5.2-5.2v-12.4c0-2.9,2.3-5.2,5.2-5.2h66.9c2.9,0,5.2,2.3,5.2,5.2v12.4
		c0,2.9-2.3,5.2-5.2,5.2H118.7z"/>
</g>
</svg>
